<?xml version="1.0" encoding="UTF-8" standalone="no"?>
<!-- Created with Inkscape (http://www.inkscape.org/) -->

<svg
   xmlns:dc="http://purl.org/dc/elements/1.1/"
   xmlns:cc="http://creativecommons.org/ns#"
   xmlns:rdf="http://www.w3.org/1999/02/22-rdf-syntax-ns#"
   xmlns:svg="http://www.w3.org/2000/svg"
   xmlns="http://www.w3.org/2000/svg"
   xmlns:sodipodi="http://sodipodi.sourceforge.net/DTD/sodipodi-0.dtd"
   xmlns:inkscape="http://www.inkscape.org/namespaces/inkscape"
   width="180.71429"
   height="181.42857"
   id="svg2"
   version="1.1"
   inkscape:version="0.48.4 r9939"
   sodipodi:docname="logo_small.svg"
   inkscape:export-filename="/home/jumplink/Dokumente/Arbeit/Kunden/NVC/logo_small.png"
   inkscape:export-xdpi="49.802368"
   inkscape:export-ydpi="49.802368">
  <defs
     id="defs4" />
  <sodipodi:namedview
     id="base"
     pagecolor="#ffffff"
     bordercolor="#666666"
     borderopacity="1.0"
     inkscape:pageopacity="0.0"
     inkscape:pageshadow="2"
     inkscape:zoom="0.98994952"
     inkscape:cx="384.64419"
     inkscape:cy="38.592269"
     inkscape:document-units="px"
     inkscape:current-layer="g3889"
     showgrid="false"
     inkscape:window-width="1301"
     inkscape:window-height="744"
     inkscape:window-x="65"
     inkscape:window-y="24"
     inkscape:window-maximized="1"
     fit-margin-top="0"
     fit-margin-left="0"
     fit-margin-right="0"
     fit-margin-bottom="0" />
  <metadata
     id="metadata7">
    <rdf:RDF>
      <cc:Work
         rdf:about="">
        <dc:format>image/svg+xml</dc:format>
        <dc:type
           rdf:resource="http://purl.org/dc/dcmitype/StillImage" />
        <dc:title></dc:title>
      </cc:Work>
    </rdf:RDF>
  </metadata>
  <g
     inkscape:label="Ebene 1"
     inkscape:groupmode="layer"
     id="layer1"
     transform="translate(-170.97525,-422.51531)">
    <g
       id="g3889">
      <path
         style="font-size:medium;font-style:normal;font-variant:normal;font-weight:normal;font-stretch:normal;text-indent:0;text-align:start;text-decoration:none;line-height:normal;letter-spacing:normal;word-spacing:normal;text-transform:none;direction:ltr;block-progression:tb;writing-mode:lr-tb;text-anchor:start;baseline-shift:baseline;color:#000000;fill:#2a4e96;fill-opacity:1;stroke:#2a4e96;stroke-width:5;stroke-linejoin:miter;stroke-miterlimit:4;stroke-opacity:1;stroke-dasharray:none;marker:none;visibility:visible;display:inline;overflow:visible;enable-background:accumulate;font-family:Sans;-inkscape-font-specification:Sans"
         d="M 89.28125 0 C 83.758403 0 79.28125 4.4771528 79.28125 10 C 79.28125 14.427392 82.169629 18.184426 86.15625 19.5 L 86.1875 26.75 L 82.46875 31.625 L 96.71875 31.75 L 93.09375 26.59375 L 92.9375 19.3125 C 96.65467 17.854074 99.28125 14.234431 99.28125 10 C 99.28125 4.4771528 94.804097 0 89.28125 0 z M 32.84375 23.5625 C 27.320903 23.5625 22.84375 28.039653 22.84375 33.5625 C 22.84375 39.085347 27.320903 43.5625 32.84375 43.5625 C 34.16454 43.5625 35.439507 43.308938 36.59375 42.84375 L 36.625 42.84375 L 42.125 48.3125 L 42.9375 54.40625 L 53.125 44.40625 L 46.875 43.34375 L 41.6875 38.28125 C 42.436566 36.878953 42.84375 35.263398 42.84375 33.5625 C 42.84375 28.039653 38.366597 23.5625 32.84375 23.5625 z M 147.15625 23.5625 C 141.6334 23.5625 137.15625 28.039653 137.15625 33.5625 C 137.15625 35.404684 137.63109 37.142852 138.5 38.625 L 133.65625 43.53125 L 127.59375 44.34375 L 137.5625 54.5 L 138.625 48.28125 L 143.75 42.96875 C 144.80898 43.350474 145.96571 43.5625 147.15625 43.5625 C 152.6791 43.5625 157.15625 39.085347 157.15625 33.5625 C 157.15625 28.039653 152.6791 23.5625 147.15625 23.5625 z M 90.15625 33.125 C 58.36102 33.125 32.46875 59.04853 32.46875 90.84375 C 32.46875 122.63898 58.36102 148.53125 90.15625 148.53125 C 121.95147 148.53125 147.8125 122.63898 147.8125 90.84375 C 147.8125 59.04853 121.95147 33.125 90.15625 33.125 z M 90.15625 44.15625 C 116.00663 44.15625 136.8125 64.99337 136.8125 90.84375 C 136.8125 108.07085 127.56541 123.06529 113.75 131.15625 L 98.78125 91.1875 L 107 85.25 L 98.90625 80.1875 L 98.90625 60.78125 L 90.34375 60.75 L 90.4375 55.5 C 93.94491 53.84816 95.63874 48.89159 90.4375 46.9375 C 89.73071 44.93994 89.12926 44.82949 88.40625 47.0625 C 83.41594 48.88879 84.8277 54.01422 87.8125 55.34375 L 87.90625 60.78125 L 79.34375 60.96875 L 79.34375 80.5 L 71.9375 85.15625 L 79.5 91.46875 L 64.84375 130.09375 C 51.970717 121.79536 43.46875 107.35092 43.46875 90.84375 C 43.46875 64.99337 64.30586 44.15625 90.15625 44.15625 z M 10 80.71875 C 4.4771528 80.71875 0 85.195903 0 90.71875 C 0 96.241597 4.4771528 100.71875 10 100.71875 C 14.357064 100.71875 18.066983 97.919421 19.4375 94.03125 L 26.125 94 L 31 97.71875 L 31.125 83.46875 L 25.96875 87.125 L 19.375 87.21875 C 17.957017 83.420613 14.29258 80.71875 10 80.71875 z M 170.71875 81.4375 C 166.47418 81.4375 162.85778 84.081224 161.40625 87.8125 L 154.21875 87.84375 L 149.34375 84.125 L 149.21875 98.375 L 154.375 94.71875 L 161.21875 94.625 C 162.55093 98.582462 166.31217 101.4375 170.71875 101.4375 C 176.2416 101.4375 180.71875 96.960347 180.71875 91.4375 C 180.71875 85.914653 176.2416 81.4375 170.71875 81.4375 z M 89.15625 112.0625 L 109.4375 133.375 C 103.56314 136.0354 97.045529 137.53125 90.15625 137.53125 C 82.745296 137.53125 75.745282 135.80232 69.53125 132.75 L 89.15625 112.0625 z M 42 126.34375 L 40.9375 132.5625 L 35.84375 137.875 C 34.696935 137.41675 33.466634 137.15625 32.15625 137.15625 C 26.633403 137.15625 22.15625 141.6334 22.15625 147.15625 C 22.15625 152.6791 26.633403 157.15625 32.15625 157.15625 C 37.679097 157.15625 42.15625 152.6791 42.15625 147.15625 C 42.15625 145.42073 41.715246 143.76626 40.9375 142.34375 L 45.9375 137.3125 L 52 136.5 L 42 126.34375 z M 136.375 129.21875 L 126.21875 139.21875 L 132.4375 140.28125 L 136.90625 144.5625 C 136.14494 145.97352 135.71875 147.5655 135.71875 149.28125 C 135.71875 154.8041 140.1959 159.28125 145.71875 159.28125 C 151.2416 159.28125 155.71875 154.8041 155.71875 149.28125 C 155.71875 143.7584 151.2416 139.28125 145.71875 139.28125 C 144.38291 139.28125 143.10243 139.55595 141.9375 140.03125 L 137.1875 135.28125 L 136.375 129.21875 z M 82.34375 149.59375 L 86 154.75 L 86.125 162.21875 C 82.521814 163.73055 80 167.28522 80 171.4375 C 80 176.96035 84.477153 181.4375 90 181.4375 C 95.522847 181.4375 100 176.96035 100 171.4375 C 100 166.92661 97.010046 163.08973 92.90625 161.84375 L 92.875 154.59375 L 96.59375 149.71875 L 82.34375 149.59375 z "
         transform="translate(170.97525,422.51531)"
         id="path2996" />
    </g>
  </g>
</svg>
