<?xml version="1.0" encoding="UTF-8" standalone="no"?>
<!-- Created with Inkscape (http://www.inkscape.org/) -->

<svg
   xmlns:dc="http://purl.org/dc/elements/1.1/"
   xmlns:cc="http://creativecommons.org/ns#"
   xmlns:rdf="http://www.w3.org/1999/02/22-rdf-syntax-ns#"
   xmlns:svg="http://www.w3.org/2000/svg"
   xmlns="http://www.w3.org/2000/svg"
   xmlns:sodipodi="http://sodipodi.sourceforge.net/DTD/sodipodi-0.dtd"
   xmlns:inkscape="http://www.inkscape.org/namespaces/inkscape"
   width="166.05687"
   height="165.80432"
   id="svg2"
   version="1.1"
   inkscape:version="0.48.5 r10040"
   sodipodi:docname="logo_rand_white.svg"
   inkscape:export-filename="/home/jumplink/Dokumente/Arbeit/Kunden/NVC/sails/src/assets/images/logo_rand.white.png"
   inkscape:export-xdpi="399.98346"
   inkscape:export-ydpi="399.98346">
  <defs
     id="defs4" />
  <sodipodi:namedview
     id="base"
     pagecolor="#5f5f5f"
     bordercolor="#666666"
     borderopacity="1.0"
     inkscape:pageopacity="0"
     inkscape:pageshadow="2"
     inkscape:zoom="1.4"
     inkscape:cx="256.73646"
     inkscape:cy="64.876552"
     inkscape:document-units="px"
     inkscape:current-layer="g3889"
     showgrid="false"
     inkscape:window-width="1375"
     inkscape:window-height="876"
     inkscape:window-x="65"
     inkscape:window-y="24"
     inkscape:window-maximized="1"
     fit-margin-top="0"
     fit-margin-left="0"
     fit-margin-right="0"
     fit-margin-bottom="0" />
  <metadata
     id="metadata7">
    <rdf:RDF>
      <cc:Work
         rdf:about="">
        <dc:format>image/svg+xml</dc:format>
        <dc:type
           rdf:resource="http://purl.org/dc/dcmitype/StillImage" />
        <dc:title></dc:title>
      </cc:Work>
    </rdf:RDF>
  </metadata>
  <g
     inkscape:label="Ebene 1"
     inkscape:groupmode="layer"
     id="layer1"
     transform="translate(-178.11812,-430.28241)">
    <g
       id="g3889">
      <g
         id="g2999"
         style="stroke-width:1;stroke-miterlimit:4;stroke-dasharray:none;stroke:#ffffff;stroke-opacity:1;stroke-linejoin:round;stroke-linecap:round">
        <path
           inkscape:connector-curvature="0"
           style="font-size:medium;font-style:normal;font-variant:normal;font-weight:normal;font-stretch:normal;text-indent:0;text-align:start;text-decoration:none;line-height:normal;letter-spacing:normal;word-spacing:normal;text-transform:none;direction:ltr;block-progression:tb;writing-mode:lr-tb;text-anchor:start;baseline-shift:baseline;color:#000000;fill:#2a4e96;fill-opacity:1;stroke:#ffffff;stroke-width:1;marker:none;visibility:visible;display:inline;overflow:visible;enable-background:accumulate;font-family:Sans;-inkscape-font-specification:Sans;stroke-miterlimit:4;stroke-dasharray:none;stroke-opacity:1;stroke-linejoin:round;stroke-linecap:round"
           d="m 261.125,455.625 c -31.79523,0 -57.6875,25.92353 -57.6875,57.71875 0,31.79523 25.89227,57.6875 57.6875,57.6875 31.79522,0 57.65625,-25.89227 57.65625,-57.6875 0,-31.79522 -25.86103,-57.71875 -57.65625,-57.71875 z m -0.21875,0.78125 c 2.51487,0 4.5625,2.04763 4.5625,4.5625 0,2.51487 -2.04763,4.53125 -4.5625,4.53125 -2.51487,0 -4.53125,-2.01638 -4.53125,-4.53125 0,-2.51487 2.01638,-4.5625 4.53125,-4.5625 z m 0.21875,10.25 c 25.85038,0 46.65625,20.83712 46.65625,46.6875 0,25.85039 -20.80587,46.6875 -46.65625,46.6875 -25.85039,0 -46.6875,-20.83711 -46.6875,-46.6875 0,-25.85038 20.83711,-46.6875 46.6875,-46.6875 z m -37.21875,5.46875 c 2.51487,0 4.5625,2.04763 4.5625,4.5625 0,2.51487 -2.04763,4.53125 -4.5625,4.53125 -2.51487,0 -4.53125,-2.01638 -4.53125,-4.53125 0,-2.51487 2.01638,-4.5625 4.53125,-4.5625 z m 74,0 c 2.51487,0 4.53125,2.01638 4.53125,4.53125 0,2.51487 -2.01638,4.5625 -4.53125,4.5625 -2.51487,0 -4.5625,-2.04763 -4.5625,-4.5625 0,-2.51487 2.04763,-4.53125 4.5625,-4.53125 z m -89.0625,36.8125 c 2.51487,0 4.53125,2.04763 4.53125,4.5625 0,2.51487 -2.01638,4.5625 -4.53125,4.5625 -2.51487,0 -4.5625,-2.04763 -4.5625,-4.5625 0,-2.51487 2.04763,-4.5625 4.5625,-4.5625 z m 104.375,0.0937 c 2.51487,0 4.5625,2.04763 4.5625,4.5625 0,2.51487 -2.04763,4.53125 -4.5625,4.53125 -2.51487,0 -4.53125,-2.01638 -4.53125,-4.53125 0,-2.51487 2.01638,-4.5625 4.53125,-4.5625 z m -90.125,35.71875 c 2.51487,0 4.5625,2.04763 4.5625,4.5625 0,2.51487 -2.04763,4.5625 -4.5625,4.5625 -2.51487,0 -4.5625,-2.04763 -4.5625,-4.5625 0,-2.51487 2.04763,-4.5625 4.5625,-4.5625 z m 73.6875,2.21875 c 2.51487,0 4.5625,2.01638 4.5625,4.53125 0,2.51487 -2.04763,4.5625 -4.5625,4.5625 -2.51487,0 -4.5625,-2.04763 -4.5625,-4.5625 0,-2.51487 2.04763,-4.53125 4.5625,-4.53125 z m -36.4375,14 c 2.51487,0 4.5625,2.04763 4.5625,4.5625 0,2.51487 -2.04763,4.5625 -4.5625,4.5625 -2.51487,0 -4.5625,-2.04763 -4.5625,-4.5625 0,-2.51487 2.04763,-4.5625 4.5625,-4.5625 z"
           id="path2996" />
        <g
           id="text3766"
           style="font-size:18.63320922999999851px;font-style:normal;font-variant:normal;font-weight:normal;font-stretch:normal;text-align:center;line-height:125%;letter-spacing:0px;word-spacing:0px;text-anchor:middle;fill:#2a4e96;fill-opacity:1;stroke:#ffffff;font-family:Ubuntu;-inkscape-font-specification:Ubuntu;stroke-width:1;stroke-miterlimit:4;stroke-dasharray:none;stroke-opacity:1;stroke-linejoin:round;stroke-linecap:round"
           transform="scale(1.0346872,0.96647566)">
          <path
             id="path3003"
             style="font-weight:500;fill:#2a4e96;-inkscape-font-specification:Ubuntu Medium;stroke-width:1;stroke-miterlimit:4;stroke-dasharray:none;stroke:#ffffff;stroke-opacity:1;stroke-linejoin:round;stroke-linecap:round"
             d="m 227.39855,535.58533 c -0.42237,-0.70806 -0.89441,-1.46581 -1.41613,-2.27325 -0.52174,-0.81986 -1.0621,-1.63972 -1.62109,-2.45959 -0.559,-0.83228 -1.13042,-1.6335 -1.71425,-2.40368 -0.57142,-0.78259 -1.118,-1.48444 -1.63972,-2.10555 l 0,9.24207 -2.31052,0 0,-12.91282 1.91922,0 c 0.49688,0.52175 1.03103,1.14285 1.60245,1.86332 0.57142,0.70808 1.14284,1.44719 1.71426,2.21736 0.58383,0.77018 1.14283,1.54656 1.67699,2.32915 0.54656,0.77018 1.03103,1.49066 1.45339,2.16145 l 0,-8.57128 2.32915,0 0,12.91282 -1.99375,0" />
        </g>
        <g
           id="text3766-3"
           style="font-size:18.63320922999999851px;font-style:normal;font-variant:normal;font-weight:normal;font-stretch:normal;text-align:center;line-height:125%;letter-spacing:0px;word-spacing:0px;text-anchor:middle;fill:#2a4e96;fill-opacity:1;stroke:#ffffff;font-family:Ubuntu;-inkscape-font-specification:Ubuntu;stroke-width:1;stroke-miterlimit:4;stroke-dasharray:none;stroke-opacity:1;stroke-linejoin:round;stroke-linecap:round"
           transform="scale(1.0346872,0.96647566)">
          <path
             id="path3000"
             style="font-weight:500;fill:#2a4e96;-inkscape-font-specification:Ubuntu Medium;stroke-width:1;stroke-miterlimit:4;stroke-dasharray:none;stroke:#ffffff;stroke-opacity:1;stroke-linejoin:round;stroke-linecap:round"
             d="m 279.54019,535.77057 c -0.93166,-2.01239 -1.83227,-4.11794 -2.70181,-6.31666 -0.85713,-2.19871 -1.65836,-4.39743 -2.40369,-6.59616 l 2.59002,0 c 0.29813,0.86957 0.60247,1.75775 0.91303,2.66455 0.31055,0.90683 0.6211,1.80122 0.93166,2.68319 0.31055,0.86955 0.6211,1.71426 0.93166,2.53411 0.31055,0.81987 0.61489,1.57141 0.91303,2.25462 0.2857,-0.68321 0.58383,-1.42854 0.89439,-2.23598 0.31055,-0.81986 0.6211,-1.67078 0.93166,-2.55275 0.32297,-0.88197 0.63973,-1.77636 0.95029,-2.68319 0.31055,-0.9068 0.60868,-1.79498 0.8944,-2.66455 l 2.51548,0 c -0.75776,2.19873 -1.5652,4.39745 -2.42232,6.59616 -0.85713,2.19872 -1.75153,4.30427 -2.68318,6.31666 l -2.25462,0" />
        </g>
        <g
           id="text3766-4"
           style="font-size:18.63320922999999851px;font-style:normal;font-variant:normal;font-weight:normal;font-stretch:normal;text-align:center;line-height:125%;letter-spacing:0px;word-spacing:0px;text-anchor:middle;fill:#2a4e96;fill-opacity:1;stroke:#ffffff;font-family:Ubuntu;-inkscape-font-specification:Ubuntu;stroke-width:1;stroke-miterlimit:4;stroke-dasharray:none;stroke-opacity:1;stroke-linejoin:round;stroke-linecap:round"
           transform="scale(1.0346872,0.96647566)">
          <path
             id="path3006"
             style="font-weight:500;fill:#2a4e96;-inkscape-font-specification:Ubuntu Medium;stroke-width:1;stroke-miterlimit:4;stroke-dasharray:none;stroke:#ffffff;stroke-opacity:1;stroke-linejoin:round;stroke-linecap:round"
             d="m 253.20786,574.46089 c -0.96893,0 -1.83848,-0.14906 -2.60865,-0.44719 -0.77018,-0.29813 -1.42234,-0.73291 -1.95649,-1.30433 -0.53415,-0.58384 -0.94408,-1.2919 -1.22979,-2.12418 -0.28571,-0.83228 -0.42856,-1.78879 -0.42856,-2.86952 0,-1.08072 0.16148,-2.03722 0.48446,-2.86951 0.3354,-0.83227 0.7888,-1.53412 1.36023,-2.10555 0.57141,-0.58383 1.24221,-1.02482 2.01238,-1.32296 0.77017,-0.29812 1.59624,-0.44719 2.47822,-0.4472 0.53414,10e-6 1.01861,0.0435 1.45339,0.13043 0.43476,0.0746 0.81364,0.1615 1.13662,0.26087 0.32297,0.0994 0.59005,0.20498 0.80123,0.31676 0.21117,0.11181 0.36023,0.19256 0.4472,0.24223 l -0.68943,1.91923 c -0.29814,-0.18633 -0.7267,-0.36024 -1.28569,-0.52173 -0.54658,-0.1739 -1.14285,-0.26086 -1.78879,-0.26087 -0.559,10e-6 -1.08073,0.0994 -1.56519,0.29813 -0.48447,0.18634 -0.90682,0.47205 -1.26706,0.85713 -0.34782,0.3851 -0.62111,0.86956 -0.81986,1.45339 -0.19876,0.58385 -0.29813,1.26085 -0.29813,2.03102 0,0.68322 0.0745,1.31054 0.2236,1.88195 0.16148,0.57143 0.40372,1.06831 0.72669,1.49066 0.32298,0.40993 0.73291,0.73291 1.2298,0.96893 0.49688,0.2236 1.09314,0.3354 1.78878,0.3354 0.83228,0 1.50929,-0.0807 2.03102,-0.24224 0.52172,-0.1739 0.92544,-0.33539 1.21116,-0.48446 l 0.63353,1.91922 c -0.14907,0.0994 -0.35404,0.19876 -0.61489,0.29813 -0.24846,0.0994 -0.54659,0.19876 -0.8944,0.29813 -0.34783,0.087 -0.73912,0.15528 -1.17389,0.20497 -0.43478,0.0621 -0.90061,0.0932 -1.39749,0.0932" />
        </g>
        <path
           style="fill:#2a4e96;fill-opacity:1;stroke:#ffffff;stroke-width:1;stroke-miterlimit:4;stroke-dasharray:none;stroke-opacity:1;stroke-linejoin:round;stroke-linecap:round"
           d="m 252.57265,490.81428 0,16.02679 -6.07142,3.79464 6.20535,5.17857 -14.375,37.90179 2.36607,0 19.91072,-21.02679 20,21.02679 2.14285,-0.13393 -14.24107,-37.99107 6.74108,-4.86607 -6.65179,-4.15179 0,-15.89286 -7.00893,-0.0446 0.0893,-4.28571 c 2.87392,-1.35349 4.26182,-5.40779 0,-7.00894 l 0,-7.90178 c 1.27426,-0.37599 1.39403,-3.33872 -0.67883,-3.43504 -2.07286,-0.0963 -2.26952,2.96996 -0.99528,3.61639 l 0,7.80972 c -4.08898,1.49643 -2.93677,5.69633 -0.49107,6.78572 l 0.0893,4.46428 z"
           id="path3800"
           inkscape:connector-curvature="0"
           sodipodi:nodetypes="ccccccccccccccccczccccc" />
        <path
           style="fill:#2a4e96;fill-opacity:1;stroke:#ffffff;stroke-width:1;stroke-miterlimit:4;stroke-dasharray:none;stroke-opacity:1;stroke-linejoin:round;stroke-linecap:round"
           d="m 260.30033,430.28246 c -3.05729,0 -5.53125,2.47396 -5.53125,5.53125 0,1.52865 0.62323,2.90448 1.625,3.90625 0.0104,0.0104 0.0207,0.0209 0.0312,0.0312 l 0.71875,1.75 0.0316,7.75635 -3.72066,4.87246 14.25159,0.12563 -3.65308,-5.15625 -0.12658,-7.93877 0.40466,-1.56567 c 0.92911,-0.99015 1.5,-2.3163 1.5,-3.78125 0,-3.05729 -2.47396,-5.53125 -5.53125,-5.53125 z"
           id="path3840"
           inkscape:connector-curvature="0"
           sodipodi:nodetypes="sssccccccccss" />
        <path
           sodipodi:nodetypes="sssccccccccss"
           inkscape:connector-curvature="0"
           id="path3845"
           d="m 201.90414,455.20474 c -2.16183,2.16183 -2.16183,5.66053 0,7.82236 1.08092,1.08092 2.49447,1.61309 3.91118,1.61309 0.0147,0 0.0294,1.4e-4 0.0441,0 l 1.74567,0.72921 5.50691,5.46222 0.81445,6.07625 10.16623,-9.98856 -6.22914,-1.0629 -5.70307,-5.52405 -0.82095,-1.39324 c -0.0432,-1.35712 -0.57721,-2.69853 -1.61309,-3.73441 -2.16183,-2.16183 -5.66054,-2.16183 -7.82237,0 z"
           style="fill:#2a4e96;fill-opacity:1;stroke:#ffffff;stroke-width:1;stroke-miterlimit:4;stroke-dasharray:none;stroke-opacity:1;stroke-linejoin:round;stroke-linecap:round" />
        <path
           style="fill:#2a4e96;fill-opacity:1;stroke:#ffffff;stroke-width:1;stroke-miterlimit:4;stroke-dasharray:none;stroke-opacity:1;stroke-linejoin:round;stroke-linecap:round"
           d="m 178.11819,513.39948 c 0,3.05729 2.47395,5.53125 5.53124,5.53125 1.52865,0 2.90449,-0.62323 3.90625,-1.625 0.0104,-0.0104 0.0209,-0.0207 0.0312,-0.0312 l 1.75,-0.71875 7.75635,-0.0316 4.87246,3.72066 0.12563,-14.25159 -5.15625,3.65308 -7.93878,0.12659 -1.56566,-0.40467 c -0.99018,-0.92908 -2.3163,-1.5 -3.78126,-1.5 -3.05729,0 -5.53125,2.47396 -5.53125,5.53125 z"
           id="path3847"
           inkscape:connector-curvature="0"
           sodipodi:nodetypes="sssccccccccss" />
        <path
           sodipodi:nodetypes="sssccccccccss"
           inkscape:connector-curvature="0"
           id="path3849"
           d="m 201.27269,571.03803 c 2.16183,2.16183 5.66053,2.16184 7.82236,10e-6 1.08092,-1.08092 1.6131,-2.49448 1.61309,-3.91119 0,-0.0147 1.4e-4,-0.0294 0,-0.0441 l 0.7292,-1.74567 5.46223,-5.50691 6.07625,-0.81445 -9.98856,-10.16623 -1.0629,6.22914 -5.52406,5.70308 -1.39323,0.82094 c -1.35712,0.0432 -2.69853,0.57721 -3.73441,1.61309 -2.16184,2.16183 -2.16184,5.66054 0,7.82237 z"
           style="fill:#2a4e96;fill-opacity:1;stroke:#ffffff;stroke-width:1;stroke-miterlimit:4;stroke-dasharray:none;stroke-opacity:1;stroke-linejoin:round;stroke-linecap:round" />
        <path
           style="fill:#2a4e96;fill-opacity:1;stroke:#ffffff;stroke-width:1;stroke-miterlimit:4;stroke-dasharray:none;stroke-opacity:1;stroke-linejoin:round;stroke-linecap:round"
           d="m 260.73012,596.08666 c 3.05729,0 5.53125,-2.47395 5.53125,-5.53124 0,-1.52865 -0.62323,-2.9045 -1.625,-3.90625 -0.0104,-0.0104 -0.0207,-0.0209 -0.0312,-0.0312 l -0.71876,-1.74999 -0.0316,-7.75636 3.72065,-4.87246 -14.25159,-0.12563 3.65309,5.15625 0.12658,7.93879 -0.40467,1.56565 c -0.92908,0.99018 -1.5,2.3163 -1.5,3.78126 0,3.05729 2.47396,5.53125 5.53126,5.53125 z"
           id="path3851"
           inkscape:connector-curvature="0"
           sodipodi:nodetypes="sssccccccccss" />
        <path
           sodipodi:nodetypes="sssccccccccss"
           inkscape:connector-curvature="0"
           id="path3853"
           d="m 319.37882,573.43722 c 2.16183,-2.16184 2.16184,-5.66054 10e-6,-7.82237 -1.08092,-1.08092 -2.49448,-1.6131 -3.91118,-1.61308 -0.0147,0 -0.0294,-1.5e-4 -0.0441,0 l -1.74567,-0.72919 -5.50692,-5.46223 -0.81445,-6.07625 -10.16623,9.98856 6.22914,1.0629 5.70308,5.52406 0.82094,1.39323 c 0.0432,1.35712 0.57721,2.69853 1.61309,3.73441 2.16183,2.16184 5.66054,2.16184 7.82238,0 z"
           style="fill:#2a4e96;fill-opacity:1;stroke:#ffffff;stroke-width:1;stroke-miterlimit:4;stroke-dasharray:none;stroke-opacity:1;stroke-linejoin:round;stroke-linecap:round" />
        <path
           style="fill:#2a4e96;fill-opacity:1;stroke:#ffffff;stroke-width:1;stroke-miterlimit:4;stroke-dasharray:none;stroke-opacity:1;stroke-linejoin:round;stroke-linecap:round"
           d="m 344.17491,513.47472 c -1e-5,-3.05729 -2.47395,-5.53125 -5.53124,-5.53125 -1.52865,0 -2.9045,0.62322 -3.90624,1.625 -0.0104,0.0104 -0.0209,0.0207 -0.0312,0.0312 l -1.74999,0.71876 -7.75636,0.0316 -4.87246,-3.72065 -0.12563,14.25159 5.15625,-3.65309 7.93879,-0.12658 1.56565,0.40467 c 0.99018,0.92908 2.3163,1.5 3.78126,1.5 3.05729,0 5.53125,-2.47396 5.53125,-5.53126 z"
           id="path3855"
           inkscape:connector-curvature="0"
           sodipodi:nodetypes="sssccccccccss" />
        <path
           sodipodi:nodetypes="sssccccccccss"
           inkscape:connector-curvature="0"
           id="path3857"
           d="m 320.26278,454.82602 c -2.16184,-2.16182 -5.66053,-2.16183 -7.82236,0 -1.08092,1.08092 -1.61311,2.49447 -1.61308,3.91117 0,0.0147 -1.5e-4,0.0294 0,0.0441 l -0.72919,1.74567 -5.46223,5.50692 -6.07625,0.81445 9.98856,10.16623 1.0629,-6.22914 5.52406,-5.70308 1.39323,-0.82094 c 1.35712,-0.0432 2.69853,-0.57721 3.73441,-1.61309 2.16184,-2.16183 2.16184,-5.66054 0,-7.82238 z"
           style="fill:#2a4e96;fill-opacity:1;stroke:#ffffff;stroke-width:1;stroke-miterlimit:4;stroke-dasharray:none;stroke-opacity:1;stroke-linejoin:round;stroke-linecap:round" />
      </g>
    </g>
  </g>
</svg>
