<?xml version="1.0" encoding="UTF-8" standalone="no"?>
<!-- Generator: Adobe Illustrator 16.0.4, SVG Export Plug-In . SVG Version: 6.00 Build 0)  -->

<svg
   xmlns:dc="http://purl.org/dc/elements/1.1/"
   xmlns:cc="http://creativecommons.org/ns#"
   xmlns:rdf="http://www.w3.org/1999/02/22-rdf-syntax-ns#"
   xmlns:svg="http://www.w3.org/2000/svg"
   xmlns="http://www.w3.org/2000/svg"
   xmlns:sodipodi="http://sodipodi.sourceforge.net/DTD/sodipodi-0.dtd"
   xmlns:inkscape="http://www.inkscape.org/namespaces/inkscape"
   version="1.1"
   id="Capa_1"
   x="0px"
   y="0px"
   width="20px"
   height="18.5px"
   viewBox="0 0 20 18.5"
   style="enable-background:new 0 0 20 18.5;"
   xml:space="preserve"
   inkscape:version="0.48.4 r9939"
   sodipodi:docname="ship_shite.svg"><metadata
     id="metadata39"><rdf:RDF><cc:Work
         rdf:about=""><dc:format>image/svg+xml</dc:format><dc:type
           rdf:resource="http://purl.org/dc/dcmitype/StillImage" /></cc:Work></rdf:RDF></metadata><defs
     id="defs37" /><sodipodi:namedview
     pagecolor="#000000"
     bordercolor="#666666"
     borderopacity="1"
     objecttolerance="10"
     gridtolerance="10"
     guidetolerance="10"
     inkscape:pageopacity="0"
     inkscape:pageshadow="2"
     inkscape:window-width="1366"
     inkscape:window-height="692"
     id="namedview35"
     showgrid="false"
     inkscape:zoom="18.040778"
     inkscape:cx="-1.1832044"
     inkscape:cy="7.7071428"
     inkscape:window-x="0"
     inkscape:window-y="24"
     inkscape:window-maximized="1"
     inkscape:current-layer="Capa_1" /><path
     style="fill:#ffffff;fill-opacity:1"
     d="M9.046,3.115L5.569,5.643V2.826h0.837V1.583h1.421V0.505C7.827,0.228,8.8,0,10,0  s2.173,0.228,2.173,0.505v1.078h1.421v1.243h0.836v2.814l-3.476-2.525C10.429,2.734,9.571,2.734,9.046,3.115z M4.165,8.834  C3.966,8.217,4.23,7.4,4.756,7.02l0.813-0.591l3.477-2.527C9.244,3.758,9.493,3.687,9.75,3.65v8.433c0,0.138,0.112,0.25,0.25,0.25  s0.25-0.112,0.25-0.25V3.65c0.257,0.036,0.506,0.107,0.704,0.251l3.476,2.525l0.814,0.593c0.525,0.381,0.79,1.197,0.591,1.814  l-2.003,5.09c-0.156,0.066-0.324,0.109-0.515,0.112c-0.675-0.012-1.12-0.4-1.475-1.268c-0.004-0.014-0.01-0.021-0.016-0.035  c-0.002-0.008-0.007-0.01-0.01-0.02h-0.001c-0.035-0.053-0.088-0.088-0.148-0.088s-0.111,0.035-0.146,0.088  c-0.011,0.021-0.021,0.041-0.027,0.066c-0.358,0.871-0.811,1.26-1.499,1.26H9.99c-0.695,0-1.147-0.391-1.507-1.271  c-0.004-0.014-0.012-0.021-0.018-0.035c-0.002-0.008-0.005-0.01-0.008-0.02H8.457c-0.037-0.053-0.089-0.088-0.148-0.088  c-0.061,0-0.11,0.035-0.146,0.088c-0.011,0.021-0.021,0.041-0.027,0.066c-0.352,0.852-0.796,1.238-1.461,1.254  c-0.187-0.005-0.352-0.046-0.507-0.11L4.165,8.834z M11.022,6.832c0,0.218,0.176,0.394,0.394,0.394c0.217,0,0.393-0.176,0.393-0.394  c0-0.217-0.176-0.393-0.393-0.393C11.198,6.439,11.022,6.615,11.022,6.832z M8.22,6.832c0,0.218,0.176,0.394,0.394,0.394  c0.217,0,0.393-0.176,0.393-0.394c0-0.217-0.176-0.393-0.393-0.393C8.396,6.439,8.22,6.615,8.22,6.832z M20,15.018h-0.025V18.5  H0.014v-3.482H0c0.688,0,1.144-0.389,1.503-1.26c0.006-0.025,0.014-0.045,0.026-0.066l0,0c0.035-0.053,0.088-0.088,0.146-0.088  c0.063,0,0.113,0.035,0.146,0.088h0.006c0.001,0.01,0.004,0.012,0.008,0.02c0.006,0.014,0.011,0.021,0.016,0.035  c0.359,0.881,0.812,1.271,1.506,1.271h0.003c0.688,0,1.145-0.389,1.504-1.26c0.005-0.025,0.013-0.045,0.025-0.066h0.002  c0.033-0.053,0.085-0.088,0.147-0.088c0.061,0,0.112,0.035,0.146,0.088h0.003c0.001,0.01,0.005,0.012,0.008,0.02  c0.006,0.014,0.011,0.021,0.015,0.035c0.354,0.861,0.798,1.25,1.465,1.266c0.665-0.016,1.109-0.402,1.461-1.254  c0.007-0.025,0.017-0.045,0.027-0.066l0,0c0.036-0.053,0.086-0.088,0.146-0.088c0.06,0,0.111,0.035,0.148,0.088h0.001  c0.003,0.01,0.006,0.012,0.008,0.02c0.006,0.014,0.014,0.021,0.018,0.035c0.359,0.881,0.812,1.271,1.507,1.271h0.005  c0.688,0,1.141-0.389,1.499-1.26c0.007-0.025,0.017-0.045,0.027-0.066l0,0c0.035-0.053,0.086-0.088,0.146-0.088  s0.113,0.035,0.148,0.088h0.001c0.003,0.01,0.008,0.012,0.01,0.02c0.006,0.014,0.012,0.021,0.016,0.035  c0.354,0.867,0.8,1.256,1.475,1.268c0.67-0.012,1.115-0.4,1.471-1.256c0.005-0.025,0.014-0.045,0.026-0.066l0,0  c0.035-0.053,0.085-0.088,0.146-0.088c0.062,0,0.114,0.035,0.146,0.088h0.004c0.002,0.01,0.006,0.012,0.011,0.02  c0.004,0.014,0.009,0.021,0.014,0.035c0.358,0.881,0.812,1.271,1.506,1.271h0.005c0.689,0,1.143-0.389,1.501-1.26  c0.006-0.025,0.015-0.045,0.027-0.066l0,0c0.035-0.053,0.087-0.088,0.147-0.088c0.062,0,0.113,0.035,0.146,0.088h0.002  c0.004,0.01,0.007,0.012,0.012,0.02c0.003,0.014,0.009,0.021,0.012,0.035C18.854,14.627,19.307,15.018,20,15.018z"
     id="path3" /><g
     id="g5" /><g
     id="g7" /><g
     id="g9" /><g
     id="g11" /><g
     id="g13" /><g
     id="g15" /><g
     id="g17" /><g
     id="g19" /><g
     id="g21" /><g
     id="g23" /><g
     id="g25" /><g
     id="g27" /><g
     id="g29" /><g
     id="g31" /><g
     id="g33" /></svg>